<?xml version="1.0" encoding="UTF-8" standalone="no"?>
<svg
   version="1.1"
   viewBox="0 0 123.82581 65.060341"
   id="svg557"
   sodipodi:docname="ADV.svg"
   inkscape:version="1.2.2 (b0a8486, 2022-12-01)"
   width="123.82581"
   height="65.060341"
   xmlns:inkscape="http://www.inkscape.org/namespaces/inkscape"
   xmlns:sodipodi="http://sodipodi.sourceforge.net/DTD/sodipodi-0.dtd"
   xmlns="http://www.w3.org/2000/svg"
   xmlns:svg="http://www.w3.org/2000/svg">
  <defs
     id="defs561" />
  <sodipodi:namedview
     id="namedview559"
     pagecolor="#ffffff"
     bordercolor="#000000"
     borderopacity="0.25"
     inkscape:showpageshadow="2"
     inkscape:pageopacity="0.0"
     inkscape:pagecheckerboard="0"
     inkscape:deskcolor="#d1d1d1"
     showgrid="false"
     inkscape:zoom="1.4581571"
     inkscape:cx="21.259712"
     inkscape:cy="3.7718844"
     inkscape:window-width="1440"
     inkscape:window-height="847"
     inkscape:window-x="0"
     inkscape:window-y="205"
     inkscape:window-maximized="0"
     inkscape:current-layer="svg557" />
  <path
     fill="#fd9f1e"
     d="m 21.448845,27.431177 c 5.658261,7.735341 -1.309332,8.675425 0.503326,17.078013 0.206667,1.36667 0.01,2.70333 -0.59,4.01 -8.86,-2.36 -2.463326,-16.218013 0.08667,-21.088013 z"
     id="path547"
     sodipodi:nodetypes="ccccc" />
  <g
     stroke-width="2"
     fill="none"
     stroke-linecap="butt"
     id="g535"
     transform="translate(-26.387829,-55.77081)">
    <path
       stroke="#fa7911"
       vector-effect="non-scaling-stroke"
       d="m 50.71,78 q -0.2,3.32 2.5,5.25"
       id="path529" />
    <path
       stroke="#fa7911"
       vector-effect="non-scaling-stroke"
       d="m 47.75,104.29 q 0.9,-1.96 0.59,-4.01"
       id="path531" />
  </g>
  <path
     fill="#f75204"
     d="m 24.322171,22.22919 c -0.07741,1.285059 2.691413,-0.946577 3.265717,0.02611 0.414854,0.702627 -0.823866,3.290717 -0.765717,5.223892 -0.6,2.42 2.721022,11.66 3.181022,13.19 1.94,6.519998 -3.361022,9.519998 -8.641022,7.849998 0.6,-1.30667 0.796667,-2.64333 0.59,-4.01 l 3.68,-0.399998 c 1.413333,-0.153333 -7.345516,-24.29836 -7.838849,-25.631693 3.210043,7.951995 0.874066,2.098732 -0.06108,-0.244773 -0.504493,-1.264277 2.127947,4.992811 0.07993,0.274505 -1.06,-2.48 -3.51,-2.388041 -4.5,0.131959 -2.78,7.04 -5.493333,14.1 -8.14,21.18 -1.01,2.72 -0.88,5.11 2.79,4.87 0.351627,-0.0254 0.691444,0.12025 0.91,0.39 0.84,1.04 0.89,2.14333 0.15,3.31 -0.183859,0.28531 -0.484992,0.4726 -0.82,0.51 -5.96,0.61 -9.72,-3.44 -7.60999998,-9.11 2.85333298,-7.646667 5.74333298,-15.26 8.66999998,-22.84 1,-2.6 2.63,-3.61 4.94,-4.8 0.210052,-0.11171 0.236464,-0.402243 0.05,-0.55 -0.486667,-0.386667 -0.973333,-0.74 -1.46,-1.06 -5.12,-3.3299998 -2.81,-10.1299998 2.84,-10.3799998 7.38,-0.33 8.05,8.95 1.57,11.4799998 -0.426667,0.166667 -0.453333,0.383333 -0.08,0.65 l 3.489999,2.47 c 0.29036,0.199877 0.499498,0.494088 0.59,0.83 1.531334,2.393333 2.226846,4.606667 3.12,6.64 z m -9.2718,-14.9774998 c 0.650118,0.428655 1.576393,0.170637 2.0689,-0.5763 0.492568,-0.746941 0.364833,-1.700009 -0.2853,-2.1287 -0.650118,-0.428655 -1.576393,-0.170637 -2.0689,0.5763 -0.492568,0.746941 -0.364833,1.700009 0.2853,2.1287 z"
     id="path537"
     sodipodi:nodetypes="csccccccsccccccccccccccccccccccc" />
  <path
     fill="#fd9f1e"
     d="m 26.822171,27.47919 c -1.181812,-1.423732 -1.876725,-3.643166 -2.5,-5.25 1.71,-4.72 2.22,-7.17 6.67,-10.01 0.187057,-0.120984 0.181655,-0.396442 -0.01,-0.51 -12.01,-7.0499998 5.34,-18.0899998 7.35,-6.9899998 0.586667,3.28 -0.633333,5.5799998 -3.66,6.8999998 -0.533333,0.233333 -0.904197,0.936704 -0.39753,1.230037 3.896388,2.044475 5.377425,5.86683 6.305842,9.94884 2.46,5.99 0.377239,12.291119 -6.352761,11.821119 -0.352388,-0.02574 0.265249,0.662655 0.03445,0.400004 -0.86,-0.973333 -0.896667,-2.076667 -0.11,-3.31 0.149642,-0.230691 0.409341,-0.36995 0.69,-0.37 7.03,0.01 0.35,-13.94 -1.89,-14.54 -2.66,-0.71 -5.35,8.67 -6.130001,10.68 z m 5.7392,-20.2412998 c 0.737533,0.192095 1.514849,-0.341039 1.7362,-1.1908 0.221402,-0.849791 -0.19704,-1.694463 -0.9346,-1.8866 -0.737533,-0.192095 -1.514849,0.341039 -1.7362,1.1908 -0.221402,0.849791 0.19704,1.694463 0.9346,1.8866 z"
     id="path539"
     sodipodi:nodetypes="ccccccccccccccccccc" />
  <path
     fill="#f75204"
     d="m 61.792171,16.28919 c 1.64,1.73 1.9,3.82 2.6,5.57 q 3.86,9.67 7.58,19.39 0.81,2.11 -1.37,2.69 c -3.26,0.89 -4.62,-4.77 -5.7,-8.25 a 0.87,0.87 0 0 0 -0.82,-0.61 l -6.95,-0.07 a 0.86,0.86 0 0 0 -0.81,0.54 l -2.99,7.41 a 1.94,1.93 12.2 0 1 -1.88,1.21 c -2.07,-0.08 -2.66,-1.7 -1.99,-3.51 q 4.42,-11.94 9.14,-23.76 1.12,-2.8 3.19,-0.61 z m -2.97,13.09 a 0.64,0.64 0 0 0 0.61,0.86 l 2.38,-0.02 a 0.64,0.64 0 0 0 0.59,-0.88 l -1.22,-3.1 a 0.64,0.64 0 0 0 -1.2,0.01 z"
     id="path541" />
  <path
     fill="#f75204"
     d="m 87.202171,17.10919 c 15.469999,6.71 9.21,28.56 -7.99,27.09 -2.05,-0.18 -4.68,0.49 -4.8,-2.79 q -0.15,-3.92 -0.03,-22.18 0.02,-3.24 2.98,-3.31 c 3.27,-0.06 6.88,-0.1 9.84,1.19 z m -7.25,22.67 c 16.46,0.49 13.53,-22.13 -0.31,-18.91 a 0.74,0.74 0 0 0 -0.56,0.72 l 0.1,17.4 a 0.8,0.8 0 0 0 0.77,0.79 z"
     id="path543" />
  <path
     fill="#f75204"
     d="m 106.84217,34.22919 q 0.39,0.91 0.75,-0.01 l 6.69,-17.11 a 1.18,1.18 0 0 1 0.81,-0.72 l 1.73,-0.44 a 0.75,0.74 69.4 0 1 0.85,0.39 q 1.11,2.21 -0.04,5.15 -4.17,10.67 -8.45,21.41 a 2.06,2.04 14.7 0 1 -2.19,1.27 q -1.31,-0.19 -1.95,-1.8 -4.54,-11.35 -9.359999,-23.29 -0.73,-1.82 1.04,-2.66 c 1.62,-0.77 2.93,-0.48 3.599999,1.32 q 3.13,8.38 6.52,16.49 z"
     id="path545" />
  <rect
     style="fill:#ffffff;fill-opacity:0.997714;stroke-width:7.55906;stroke-dasharray:30.2362, 7.55906;stroke-dashoffset:0.0755906"
     id="rect785"
     width="1.2742739"
     height="2.4735904"
     x="46.095867"
     y="62.58675" />
  <text
     xml:space="preserve"
     style="font-style:normal;font-variant:normal;font-weight:normal;font-stretch:normal;font-size:21.8436px;font-family:Damascus;-inkscape-font-specification:'Damascus, Normal';font-variant-ligatures:normal;font-variant-caps:normal;font-variant-numeric:normal;font-variant-east-asian:normal;fill:#e9af51;fill-opacity:0.996078;stroke-width:24.9068;stroke-dasharray:99.6272, 24.9068;stroke-dashoffset:0.249068"
     x="32.409149"
     y="63.819798"
     id="text841"
     transform="scale(0.99358057,1.0064609)"><tspan
       sodipodi:role="line"
       id="tspan839"
       x="32.409149"
       y="63.819798"
       style="font-style:normal;font-variant:normal;font-weight:normal;font-stretch:normal;font-size:21.8436px;font-family:Damascus;-inkscape-font-specification:'Damascus, Normal';font-variant-ligatures:normal;font-variant-caps:normal;font-variant-numeric:normal;font-variant-east-asian:normal;stroke-width:24.9068">ANGOLA</tspan></text>
</svg>
