<?xml version="1.0" encoding="UTF-8" standalone="no"?>
<svg
   version="1.1"
   viewBox="0 0 233.05289 87.720894"
   id="svg252"
   sodipodi:docname="BIC.svg"
   inkscape:version="1.2.2 (b0a8486, 2022-12-01)"
   width="233.05289"
   height="87.720894"
   xmlns:inkscape="http://www.inkscape.org/namespaces/inkscape"
   xmlns:sodipodi="http://sodipodi.sourceforge.net/DTD/sodipodi-0.dtd"
   xmlns="http://www.w3.org/2000/svg"
   xmlns:svg="http://www.w3.org/2000/svg">
  <defs
     id="defs256" />
  <sodipodi:namedview
     id="namedview254"
     pagecolor="#ffffff"
     bordercolor="#000000"
     borderopacity="0.25"
     inkscape:showpageshadow="2"
     inkscape:pageopacity="0.0"
     inkscape:pagecheckerboard="0"
     inkscape:deskcolor="#d1d1d1"
     showgrid="false"
     inkscape:zoom="1.8210989"
     inkscape:cx="94.448467"
     inkscape:cy="30.476104"
     inkscape:window-width="1440"
     inkscape:window-height="847"
     inkscape:window-x="0"
     inkscape:window-y="205"
     inkscape:window-maximized="0"
     inkscape:current-layer="svg252"
     inkscape:lockguides="true" />
  <path
     stroke="#e57d81"
     stroke-width="2"
     fill="none"
     stroke-linecap="butt"
     vector-effect="non-scaling-stroke"
     d="m 62.574164,79.367753 q -1.02,3.21 0.03,6.8"
     id="path182" />
  <path
     fill="#ed1b23"
     d="m 82.844164,0.2677532 a 0.76,0.76 0 0 1 1.23,0.1 q 1.2,2.01 0.12,3.99 a 0.62,0.62 0 0 1 -0.86,0.23 q -2.77,-1.7 -0.49,-4.32 z"
     id="path184" />
  <path
     fill="#ed1b23"
     d="m 62.574164,79.367753 q -1.02,3.21 0.03,6.8 -13.64,2.67 -28.84,0.75 -3.88,-0.49 -3.55,-4.08 c 0.98,-10.69 5.53,-21.71 7.36,-30.76 1.67,-8.29 0.74,-16.55 -6.39,-22.11 -10.34,-8.05 -21.6900004,-14.96 -30.28000036,-24.3599998 q -2.23000004,-2.43 1.03999996,-2.84 c 8.2600004,-1.03 8.3200004,6.9 13.2100004,10.8399998 3.29,2.65 13.68,2.89 9.58,-4.3699998 -1.21,-2.13 -3.46,-6.61 -2.68,-7.93 a 1.26,1.25 45.5 0 1 2.17,0.02 c 3.47,6.07 12.47,23.9399998 18.57,25.5199998 a 0.66,0.66 0 0 0 0.74,-0.31 c 6.48,-11.33 -4.28,-16.7899998 -11.95,-21.5699998 q -1.96,-1.22 0.26,-1.83 c 6.51,-1.81 8.21,1.58 11.85,6.03 q 2.03,2.4799998 4.5,1.2799998 c 2.16,-1.0499998 3.14,-4.2799998 4.06,-6.4999998 a 1.9,1.89 14.2 0 1 1.92,-1.14 c 3.38,0.32 0.33,8.7499998 0.08,11.0799998 q -0.19,1.9 1.31,3.07 c 3.69,2.88 9.68,-11.3399998 11.04,-14.1199998 q 1.44,-2.92 3.08,-0.1 c 4.9,8.4399998 -6.8,13.4699998 -11.43,18.8699998 q -1.9,2.23 -1.22,5.08 c 2.72,11.33 24.28,-9.93 18.41,-22.1099998 a 1.19,1.17 43.1 0 1 -0.04,-0.95 q 0.59,-1.5 2.5,-1.01 1.85,0.49 1.63,2.39 c -0.25,2.23 -1.39,5.3699998 1.1,6.8599998 a 1.57,1.57 0 0 0 2.12,-0.47 c 2.44,-3.6499998 3.99,-9.6399998 9.56,-8.5599998 q 1.27,0.24 1.3,1.7 a 1.39,1.36 64.5 0 1 -0.31,0.9 q -4.04,4.8199998 -8.69,9.0499998 c -5.7,5.18 -8.21,9.61 -12.59,16.29 q -2.57,3.9 -7.45,5.47 c -7.31,2.35 -7.82,8.35 -6.45,15.17 q 2.8,13.88 4.45,27.95 z"
     id="path186"
     inkscape:label="path186"
     style="fill:#ed1b23;fill-opacity:1" />
  <ellipse
     fill="#ed1b23"
     cx="20.620375"
     cy="-41.883316"
     transform="rotate(69.6)"
     rx="2.8399999"
     ry="2.1900001"
     id="ellipse188" />
  <path
     fill="#ed1b23"
     d="m 59.024164,3.5577532 a 1.53,1.53 0 0 1 1.94,-1.03 c 2.2,0.72 -1.96,8.6799998 -3.32,7.7199998 a 0.8,0.8 0 0 1 -0.31,-0.8799998 z"
     id="path190" />
  <ellipse
     fill="#ed1b23"
     cx="11.633791"
     cy="-15.366756"
     transform="rotate(75.7)"
     rx="4.52"
     ry="2.9300001"
     id="ellipse192" />
  <path
     fill="#ed1b23"
     d="m 40.684164,22.547753 q -4.33,-4.2 -6.14,-9.46 c -0.46,-1.34 0.28,-2.83 1.74,-2.2 q 6.9,2.97 5.91,10.68 -0.1,0.83 -0.56,1.09 a 0.78,0.79 51.8 0 1 -0.95,-0.11 z"
     id="path194" />
  <ellipse
     fill="#ed1b23"
     cx="-31.064461"
     cy="-61.349098"
     transform="rotate(134.6)"
     rx="6.98"
     ry="1.91"
     id="ellipse196" />
  <path
     fill="#dcdede"
     d="m 62.604164,86.167753 q -1.05,-3.59 -0.03,-6.8 11.36,-1.65 22.92,0.53 2.12,0.39 0.66,1.98 c -2.9,3.16 -19.19,4.23 -23.55,4.29 z"
     id="path250" />
  <text
     xml:space="preserve"
     style="font-style:normal;font-variant:normal;font-weight:bold;font-stretch:normal;font-size:22.7293px;font-family:Damascus;-inkscape-font-specification:'Damascus, Bold';font-variant-ligatures:normal;font-variant-caps:normal;font-variant-numeric:normal;font-variant-east-asian:normal;fill:#ed1b23;fill-opacity:1;stroke-width:8.33339;stroke-dasharray:33.3335, 8.33339;stroke-dashoffset:0.0833339"
     x="95.68396"
     y="49.770966"
     id="text643"
     transform="scale(0.92272816,1.0837428)"><tspan
       sodipodi:role="line"
       id="tspan641"
       x="95.68396"
       y="49.770966"
       style="font-style:normal;font-variant:normal;font-weight:bold;font-stretch:normal;font-size:22.7293px;font-family:Damascus;-inkscape-font-specification:'Damascus, Bold';font-variant-ligatures:normal;font-variant-caps:normal;font-variant-numeric:normal;font-variant-east-asian:normal;fill:#ed1b23;fill-opacity:1;stroke-width:8.33339">BIC Seguros</tspan></text>
  <text
     xml:space="preserve"
     style="font-style:normal;font-variant:normal;font-weight:bold;font-stretch:normal;font-size:8.50648px;font-family:Damascus;-inkscape-font-specification:'Damascus, Bold';font-variant-ligatures:normal;font-variant-caps:normal;font-variant-numeric:normal;font-variant-east-asian:normal;fill:#010000;fill-opacity:0.996078;stroke-width:2.85329;stroke-dasharray:11.4131, 2.85329;stroke-dashoffset:0.0285329"
     x="109.0466"
     y="65.152863"
     id="text956"
     transform="scale(0.8635199,1.1580509)"><tspan
       sodipodi:role="line"
       id="tspan954"
       x="109.0466"
       y="65.152863"
       style="fill:#010000;fill-opacity:0.996078;stroke-width:2.85329">Seguramente Juntos</tspan></text>
</svg>
