<?xml version="1.0" encoding="UTF-8" standalone="no"?>
<svg
   version="1.1"
   viewBox="0 0 185 98.252197"
   id="svg210"
   sodipodi:docname="ENSA.svg"
   inkscape:version="1.2.2 (b0a8486, 2022-12-01)"
   width="185"
   height="98.252197"
   xmlns:inkscape="http://www.inkscape.org/namespaces/inkscape"
   xmlns:sodipodi="http://sodipodi.sourceforge.net/DTD/sodipodi-0.dtd"
   xmlns="http://www.w3.org/2000/svg"
   xmlns:svg="http://www.w3.org/2000/svg">
  <defs
     id="defs214" />
  <sodipodi:namedview
     id="namedview212"
     pagecolor="#ffffff"
     bordercolor="#000000"
     borderopacity="0.25"
     inkscape:showpageshadow="2"
     inkscape:pageopacity="0.0"
     inkscape:pagecheckerboard="0"
     inkscape:deskcolor="#d1d1d1"
     showgrid="false"
     inkscape:zoom="2.0777444"
     inkscape:cx="75.562711"
     inkscape:cy="24.786494"
     inkscape:window-width="1440"
     inkscape:window-height="847"
     inkscape:window-x="0"
     inkscape:window-y="205"
     inkscape:window-maximized="0"
     inkscape:current-layer="svg210" />
  <path
     fill="#ed2d2c"
     d="m 67.500006,57.146567 q -0.2,19.25 -3.43,38.22 -0.09,0.57 -0.45,0.11 -0.35,-0.44 -0.37,-1.11 -0.55,-18.21 -2.71,-36.32 a 0.44,0.44 0 0 0 -0.53,-0.39 q -30.17,6.26 -59.94000012,14.16 a 0.06,0.06 0 0 1 -0.069999996955,-0.06 v -0.26 q 0,-0.08 0.019999996955,-0.09 27.89000012,-16.86 58.04000012,-29.23 a 0.54,0.55 74.9 0 0 0.34,-0.58 q -2.72,-20.56 -6.5,-40.94999984 -0.21,-1.14 0.55,-0.27 c 2.32,2.60000004 4.45,5.75000004 7.02,8.04000004 q 13.97,12.4099998 30.61,21.0099998 a 1.2,1.22 50.5 0 0 0.92,0.08 c 16.630004,-5.47 35.820004,-10.87 53.360004,-11.65 a 0.95,0.97 68.4 0 1 0.76,0.32 l 2.69,2.93 a 0.42,0.42 0 0 1 -0.16,0.67 l -40.69,15.23 q -1.06,0.39 -0.04,0.86 19.55,8.99 39.92,15.9 0.99,0.34 -0.06,0.29 -4.56,-0.21 -9.07,-0.62 c -22.82,-2.09 -47.140004,-0.29 -69.750004,3.18 a 0.55,0.54 86.3 0 0 -0.46,0.53 z m 9.35,-22.64 a 0.32,0.32 0 0 0 0.05,-0.57 l -11.78,-6.66 a 0.32,0.32 0 0 0 -0.47,0.33 l 1.79,10.57 a 0.32,0.32 0 0 0 0.44,0.24 z m 37.004804,-5.6737 a 0.43,0.43 0 0 0 -0.5418,-0.2761 l -14.589204,4.7403 a 0.43,0.43 0 0 0 -0.2761,0.5418 l 0.1175,0.3614 a 0.43,0.43 0 0 0 0.5418,0.2761 l 14.589204,-4.7403 a 0.43,0.43 0 0 0 0.2761,-0.5418 z m -26.354804,9.9737 q -2.36,-1.37 -4.44,-0.75 -7.93,2.36 -15.83,5.06 a 0.63,0.64 78.5 0 0 -0.43,0.64 l 0.26,3.84 a 0.41,0.41 0 0 0 0.57,0.35 l 19.82,-8.39 q 0.78,-0.33 0.05,-0.75 z m 37.180004,11.83 c -9.48,-1.36 -20.23,-5.18 -29.250004,-8.49 a 1.27,1.23 42.9 0 0 -0.94,0.02 c -2.03,0.88 -19.45,7.97 -19.68,8.55 a 0.26,0.26 0 0 0 0.26,0.35 q 24.11,-1.92 49.430004,0.05 0.21,0.01 0.32,-0.14 a 0.21,0.21 0 0 0 -0.14,-0.34 z m -104.620004,12.54 q 17.73,-6.22 37.24,-10.36 2.72,-0.58 2.28,-3.32 l -0.46,-2.88 a 0.39,0.4 74.8 0 0 -0.53,-0.3 q -20.13,7.44 -39.48,16.71 -0.45,0.21 0.04,0.29 0.37,0.05 0.91,-0.14 z"
     id="path182" />
  <path
     fill="#002f65"
     d="m 85.270006,67.176567 a 0.71,0.71 0 0 0 -0.64,1.02 q 0.34,0.69 0.93,0.67 6.16,-0.21 12.32,0.13 a 0.67,0.68 1.7 0 1 0.64,0.69 l -0.07,6.37 a 0.57,0.57 0 0 1 -0.57,0.56 h -12.25 a 0.66,0.66 0 0 0 -0.62,0.43 l -0.2,0.55 a 0.44,0.44 0 0 0 0.42,0.59 l 12.63,-0.1 a 0.59,0.58 89 0 1 0.59,0.58 l 0.07,6.34 a 0.61,0.6 89.5 0 1 -0.6,0.62 l -25.9,0.04 a 0.77,0.78 0 0 1 -0.77,-0.78 v -24.49 a 0.78,0.77 0 0 1 0.78,-0.77 l 25.86,-0.01 a 0.58,0.58 0 0 1 0.58,0.58 v 6.44 a 0.62,0.62 0 0 1 -0.62,0.62 z"
     id="path184" />
  <path
     fill="#002f65"
     d="m 108.25001,73.426567 v 11.83 a 0.58,0.58 0 0 1 -0.58,0.58 h -6.65 a 0.64,0.64 0 0 1 -0.64,-0.64 l 0.02,-24.55 a 0.77,0.77 0 0 1 0.76,-0.77 l 15.79,-0.09 a 1.04,1.04 0 0 1 1.05,1.04 v 11.54 a 0.5,0.5 0 0 0 0.5,0.5 h 0.37 a 0.63,0.63 0 0 0 0.63,-0.63 v -11.97 a 0.6,0.6 0 0 1 0.6,-0.6 h 6.68 a 0.72,0.73 0 0 1 0.72,0.73 v 24.84 a 0.63,0.63 0 0 1 -0.63,0.63 h -16.12 a 0.65,0.64 88.6 0 1 -0.64,-0.62 q -0.24,-5.89 -0.07,-11.63 0.04,-1.21 -1.31,-0.83 a 0.67,0.67 0 0 0 -0.48,0.64 z"
     id="path186" />
  <path
     fill="#002f65"
     d="m 155.67001,67.326567 c -1.6,0.07 -12.41,-0.6 -12.92,0.63 a 0.73,0.72 11 0 0 0.68,1 l 12.17,-0.13 a 0.64,0.64 0 0 1 0.64,0.64 l 0.04,15.53 a 0.65,0.65 0 0 1 -0.66,0.65 l -25.75,-0.01 a 0.59,0.59 0 0 1 -0.59,-0.59 v -6.35 a 0.58,0.58 0 0 1 0.58,-0.58 h 12.47 a 0.62,0.62 0 0 0 0.61,-0.75 c -0.25,-1.16 -11.59,-0.8 -13.2,-0.86 a 0.51,0.51 0 0 1 -0.49,-0.51 v -15.62 a 0.73,0.73 0 0 1 0.73,-0.73 l 25.76,-0.05 a 0.68,0.69 0.4 0 1 0.68,0.7 l -0.1,6.36 a 0.68,0.68 0 0 1 -0.65,0.67 z"
     id="path188" />
  <path
     fill="#002f65"
     d="m 171.05001,76.856567 -0.08,8.46 a 0.31,0.31 0 0 1 -0.31,0.31 l -12.1,0.07 a 0.31,0.31 0 0 1 -0.31,-0.31 v -25.24 a 0.31,0.31 0 0 1 0.31,-0.31 l 26.13,-0.31 a 0.31,0.31 0 0 1 0.31,0.31 l -0.01,25.57 a 0.31,0.31 0 0 1 -0.31,0.31 l -11.87,-0.15 a 0.31,0.31 0 0 1 -0.31,-0.31 v -8.27 a 0.31,0.31 0 0 0 -0.27,-0.31 l -0.83,-0.12 a 0.31,0.31 0 0 0 -0.35,0.3 z m 1.4425,-8.9726 a 0.71,0.71 0 0 0 -0.7124,-0.7075 l -0.06,2e-4 a 0.71,0.71 0 0 0 -0.7076,0.7125 l 0.015,4.28 a 0.71,0.71 0 0 0 0.7124,0.7075 l 0.06,-2e-4 a 0.71,0.71 0 0 0 0.7076,-0.7125 z"
     id="path190" />
  <text
     xml:space="preserve"
     style="font-weight:bold;font-size:8.19219px;font-family:Damascus;-inkscape-font-specification:'Damascus, Bold';fill:#002f65;fill-opacity:1;stroke-width:2.74785;stroke-dasharray:10.9912, 2.74785;stroke-dashoffset:0.0274785"
     x="77.076523"
     y="89.764481"
     id="text441"
     transform="scale(0.92867661,1.0768011)"><tspan
       sodipodi:role="line"
       id="tspan439"
       x="77.076523"
       y="89.764481"
       style="fill:#002f65;fill-opacity:1;stroke-width:2.74785">SEGUROS DE ANGOLA, S.A.</tspan></text>
</svg>
