<?xml version="1.0" encoding="UTF-8" standalone="no"?>
<!DOCTYPE svg PUBLIC "-//W3C//DTD SVG 1.1//EN" "http://www.w3.org/Graphics/SVG/1.1/DTD/svg11.dtd">
<svg xmlns="http://www.w3.org/2000/svg" version="1.1" viewBox="0 0 358 126">
<path fill="#0098cd" d="
  M 120.53 41.08
  Q 119.35 39.81 118.62 38.24
  C 111.72 23.29 124.81 7.44 138.28 2.47
  C 153.07 -2.99 169.62 1.35 179.94 13.49
  Q 181.20 14.98 179.25 14.98
  C 169.49 14.97 142.53 13.89 136.26 22.44
  C 131.01 29.59 142.53 32.82 147.02 33.39
  C 153.18 34.18 171.38 35.60 175.13 40.42
  Q 177.20 43.09 174.55 45.18
  Q 169.32 49.30 163.05 50.71
  C 148.78 53.92 131.12 52.49 120.53 41.08
  Z"
/>
<path fill="#0098cd" d="
  M 0.00 37.44
  L 0.00 33.44
  C 3.02 4.01 32.54 -4.27 56.02 7.61
  A 0.65 0.64 28.5 0 1 56.29 8.50
  L 50.63 18.71
  A 1.20 1.19 -62.5 0 1 49.06 19.21
  C 38.24 13.89 22.02 14.66 16.99 28.00
  C 14.41 34.86 15.78 43.37 20.59 49.03
  Q 29.17 59.12 44.01 54.27
  A 1.52 1.52 0.0 0 0 45.06 52.80
  L 44.81 34.14
  Q 44.78 31.83 47.09 31.87
  L 58.16 32.04
  A 0.87 0.86 -89.7 0 1 59.01 32.91
  L 58.98 59.98
  Q 58.98 61.93 57.28 62.91
  C 34.51 75.96 1.61 67.40 0.00 37.44
  Z"
/>
<path fill="#0098cd" d="
  M 247.36 67.56
  C 257.20 46.33 267.11 25.14 277.06 3.98
  Q 278.56 0.81 280.04 3.98
  L 309.72 67.28
  A 0.51 0.50 -12.6 0 1 309.26 68.00
  L 295.07 68.00
  A 0.77 0.77 0.0 0 1 294.36 67.53
  L 289.81 56.52
  A 0.85 0.83 78.2 0 0 289.04 56.00
  L 267.86 56.00
  A 0.88 0.87 -78.1 0 0 267.06 56.53
  L 262.30 67.51
  A 0.73 0.73 0.0 0 1 261.63 67.95
  L 247.69 68.06
  A 0.36 0.35 11.9 0 1 247.36 67.56
  Z
  M 271.94 44.35
  A 0.47 0.47 0.0 0 0 272.38 45.00
  L 284.32 45.00
  A 0.47 0.47 0.0 0 0 284.76 44.35
  L 278.78 30.27
  A 0.47 0.47 0.0 0 0 277.92 30.27
  L 271.94 44.35
  Z"
/>
<path fill="#0098cd" d="
  M 86.55 54.00
  L 111.45 54.00
  A 0.55 0.55 0.0 0 1 112.00 54.55
  L 112.01 67.45
  A 0.55 0.55 0.0 0 1 111.46 68.00
  L 71.55 68.00
  A 0.55 0.55 0.0 0 1 71.00 67.45
  L 71.00 3.56
  A 0.55 0.55 0.0 0 1 71.55 3.01
  L 85.45 3.00
  A 0.55 0.55 0.0 0 1 86.00 3.55
  L 86.00 53.45
  A 0.55 0.55 0.0 0 0 86.55 54.00
  Z"
/>
<path fill="#0098cd" d="
  M 233.11 34.04
  Q 232.03 34.49 233.16 34.82
  Q 242.06 37.44 244.50 45.57
  C 248.47 58.87 233.91 67.18 222.73 67.77
  Q 210.24 68.43 197.74 67.28
  A 0.82 0.81 2.7 0 1 197.00 66.47
  L 197.00 4.49
  A 0.63 0.62 -3.1 0 1 197.56 3.87
  C 210.43 2.64 231.94 0.31 240.53 12.24
  C 246.41 20.41 241.77 30.45 233.11 34.04
  Z
  M 226.26 18.67
  C 223.48 15.08 216.52 15.57 212.14 15.85
  A 1.22 1.21 -2.0 0 0 211.01 17.06
  L 211.00 29.24
  A 0.65 0.65 0.0 0 0 211.61 29.90
  Q 218.11 30.34 222.27 29.56
  C 227.65 28.54 229.41 22.72 226.26 18.67
  Z
  M 227.79 44.28
  C 224.46 39.73 216.68 39.38 211.53 40.19
  A 0.71 0.70 -5.3 0 0 210.94 40.89
  L 211.15 54.63
  A 1.12 1.11 -84.4 0 0 212.02 55.70
  C 216.82 56.78 224.95 56.49 227.68 51.93
  Q 230.25 47.64 227.79 44.28
  Z"
/>
<path fill="#0098cd" d="
  M 358.00 54.06
  L 358.00 67.81
  L 317.46 67.94
  A 0.46 0.45 -0.0 0 1 317.00 67.49
  L 317.00 3.50
  A 0.50 0.50 0.0 0 1 317.50 3.00
  L 331.50 3.00
  A 0.50 0.50 0.0 0 1 332.00 3.50
  L 332.00 53.47
  A 0.50 0.49 0.0 0 0 332.50 53.96
  L 358.00 54.06
  Z"
/>
<path fill="#0098cd" d="
  M 162.69 32.31
  Q 159.98 31.93 158.44 29.94
  A 0.72 0.71 43.0 0 1 158.41 29.10
  C 161.40 24.62 180.42 24.90 185.64 25.03
  A 0.63 0.63 0.0 0 1 186.24 25.52
  Q 188.12 33.81 187.08 42.24
  Q 186.98 43.01 186.55 42.37
  C 181.30 34.61 170.56 33.43 162.69 32.31
  Z"
/>
<path fill="#0098cd" d="
  M 131.93 56.90
  C 147.92 61.59 167.50 61.90 182.55 54.29
  Q 182.99 54.06 182.73 54.49
  C 166.96 80.24 130.39 77.31 118.01 50.31
  Q 117.55 49.31 118.44 49.94
  C 122.66 52.90 126.93 55.43 131.93 56.90
  Z"
/>
<path fill="#0098cd" d="
  M 147.94 126.00
  L 143.69 126.00
  C 115.69 121.45 128.49 81.48 156.02 94.93
  Q 157.83 95.81 156.79 97.53
  L 156.27 98.39
  A 0.73 0.72 30.3 0 1 155.30 98.64
  Q 149.77 95.59 148.49 95.45
  C 127.41 93.06 126.24 121.75 145.24 123.16
  Q 149.20 123.45 152.37 121.81
  Q 154.35 120.79 154.28 118.56
  L 153.98 110.01
  A 0.90 0.88 -8.2 0 1 154.65 109.13
  C 157.49 108.43 157.41 109.61 157.81 111.85
  Q 158.72 116.98 157.44 122.01
  A 1.19 1.15 -8.4 0 1 156.88 122.74
  Q 152.62 125.18 147.94 126.00
  Z"
/>
<path fill="#0098cd" d="
  M 266.94 126.00
  L 263.44 126.00
  Q 259.84 125.23 256.57 123.36
  A 0.78 0.76 28.7 0 1 256.26 122.34
  L 257.39 120.16
  A 0.61 0.60 35.0 0 1 258.34 120.00
  C 262.16 123.51 269.48 124.73 271.90 119.07
  C 274.20 113.69 268.15 111.02 263.19 109.05
  C 250.56 104.04 261.93 85.55 274.44 94.17
  A 0.70 0.69 35.6 0 1 274.61 95.15
  L 273.38 96.82
  A 0.63 0.63 0.0 0 1 272.51 96.95
  C 264.46 91.23 255.49 101.23 265.30 106.07
  C 270.45 108.62 275.58 110.31 275.58 116.01
  Q 275.58 124.29 266.94 126.00
  Z"
/>
<path fill="#0098cd" d="
  M 91.44 126.00
  L 88.44 126.00
  Q 84.74 125.34 81.60 123.26
  A 0.82 0.82 0.0 0 1 81.30 122.25
  L 81.96 120.67
  A 0.60 0.60 0.0 0 1 82.82 120.39
  C 86.20 122.39 91.38 124.29 94.65 121.78
  C 98.84 118.57 97.31 113.36 92.77 111.45
  C 86.61 108.86 76.80 101.71 85.67 94.66
  Q 91.71 89.86 99.27 94.09
  A 0.67 0.66 27.8 0 1 99.55 94.97
  L 98.68 96.68
  A 0.62 0.62 0.0 0 1 97.78 96.92
  Q 94.16 94.53 90.47 95.42
  C 86.68 96.33 84.26 100.28 86.95 103.66
  C 90.10 107.60 98.05 107.99 99.66 113.33
  C 101.64 119.92 97.96 124.60 91.44 126.00
  Z"
/>
<path fill="#0098cd" d="
  M 237.94 126.00
  L 235.44 126.00
  Q 221.77 123.60 220.44 111.43
  C 219.47 102.46 225.05 93.64 234.33 92.39
  C 256.54 89.40 260.24 123.03 237.94 126.00
  Z
  M 236.3270 123.0769
  A 13.99 12.74 91.2 0 0 249.3572 109.3568
  A 13.99 12.74 91.2 0 0 236.9130 95.1031
  A 13.99 12.74 91.2 0 0 223.8828 108.8232
  A 13.99 12.74 91.2 0 0 236.3270 123.0769
  Z"
/>
<path fill="#0098cd" d="
  M 109.56 121.99
  L 124.15 122.00
  A 0.70 0.69 -2.2 0 1 124.85 122.64
  L 125.00 124.29
  A 0.61 0.60 87.4 0 1 124.40 124.95
  L 106.64 125.02
  A 0.64 0.63 -0.0 0 1 106.00 124.39
  L 106.00 93.52
  A 0.54 0.54 0.0 0 1 106.54 92.98
  L 124.29 93.01
  A 0.66 0.66 0.0 0 1 124.95 93.75
  L 124.76 95.30
  A 0.80 0.79 3.2 0 1 123.97 96.00
  L 109.50 96.00
  A 0.50 0.50 0.0 0 0 109.00 96.50
  L 109.00 106.25
  A 0.75 0.75 0.0 0 0 109.75 107.00
  L 122.25 107.00
  A 0.77 0.76 81.2 0 1 122.98 107.54
  Q 123.43 108.94 122.59 109.60
  C 121.56 110.42 113.25 110.01 111.43 110.04
  Q 109.00 110.07 109.01 112.49
  L 109.01 121.44
  A 0.55 0.55 0.0 0 0 109.56 121.99
  Z"
/>
<path fill="#0098cd" d="
  M 213.73 95.98
  Q 214.99 97.10 215.44 98.72
  Q 218.00 108.11 209.33 111.27
  A 0.63 0.62 -27.6 0 0 209.03 112.22
  L 217.57 124.28
  A 0.44 0.43 60.8 0 1 217.39 124.93
  C 215.39 125.80 213.86 125.34 212.64 123.46
  Q 209.04 117.92 205.22 112.52
  A 0.66 0.66 0.0 0 0 204.37 112.31
  Q 202.80 113.11 201.04 112.51
  A 1.45 1.45 0.0 0 0 199.13 113.81
  C 199.05 115.66 199.31 123.89 198.58 124.65
  Q 197.94 125.32 197.00 125.15
  A 1.20 1.19 -85.2 0 1 196.01 123.97
  L 196.00 93.72
  A 0.74 0.74 0.0 0 1 196.71 92.97
  C 202.53 92.79 208.88 91.70 213.73 95.98
  Z
  M 200.10 109.62
  C 215.18 113.65 217.42 92.13 199.45 96.23
  A 0.58 0.58 0.0 0 0 198.99 96.80
  L 199.02 108.21
  A 1.46 1.46 0.0 0 0 200.10 109.62
  Z"
/>
<path fill="#0098cd" d="
  M 178.44 126.00
  L 174.44 126.00
  C 165.88 124.81 164.01 119.44 164.01 111.32
  Q 164.00 102.53 163.99 93.76
  A 0.69 0.69 0.0 0 1 164.68 93.07
  L 166.29 93.07
  A 0.71 0.71 0.0 0 1 166.99 93.78
  Q 167.01 101.90 167.05 110.00
  C 167.08 115.39 167.62 121.00 173.52 122.66
  Q 178.52 124.06 182.99 120.70
  Q 184.98 119.20 184.98 116.71
  L 185.01 93.73
  A 0.69 0.68 -88.8 0 1 185.72 93.04
  L 188.37 93.14
  A 0.74 0.74 0.0 0 1 189.08 93.90
  Q 188.60 108.81 188.74 112.51
  Q 189.15 123.60 178.44 126.00
  Z"
/>
</svg>
