<?xml version="1.0" encoding="UTF-8" standalone="no"?>
<svg
   version="1.1"
   viewBox="0 0 407.20999 96.026741"
   id="svg488"
   sodipodi:docname="Medicare.svg"
   width="407.20999"
   height="96.026741"
   inkscape:version="1.2.2 (b0a8486, 2022-12-01)"
   xmlns:inkscape="http://www.inkscape.org/namespaces/inkscape"
   xmlns:sodipodi="http://sodipodi.sourceforge.net/DTD/sodipodi-0.dtd"
   xmlns="http://www.w3.org/2000/svg"
   xmlns:svg="http://www.w3.org/2000/svg">
  <defs
     id="defs492" />
  <sodipodi:namedview
     id="namedview490"
     pagecolor="#ffffff"
     bordercolor="#000000"
     borderopacity="0.25"
     inkscape:showpageshadow="2"
     inkscape:pageopacity="0.0"
     inkscape:pagecheckerboard="0"
     inkscape:deskcolor="#d1d1d1"
     showgrid="false"
     inkscape:zoom="3.1002331"
     inkscape:cx="203.53308"
     inkscape:cy="47.738346"
     inkscape:window-width="1920"
     inkscape:window-height="1080"
     inkscape:window-x="1440"
     inkscape:window-y="0"
     inkscape:window-maximized="0"
     inkscape:current-layer="svg488" />
  <path
     fill="#ae1022"
     d="M 95.88,47.94 A 47.94,47.94 0 0 1 47.94,95.88 47.94,47.94 0 0 1 0,47.94 47.94,47.94 0 0 1 47.94,0 47.94,47.94 0 0 1 95.88,47.94 Z m -39.83,-8.8 c 0,-3.9 0.51,-8.8 -1.65,-11.94 -3.04,-4.42 -10.68,-4.29 -13.37,0.53 -1.68,3.02 -0.95,7.75 -1.21,11.48 a 0.56,0.56 0 0 1 -0.53,0.53 c -3.04,0.18 -7.54,-0.31 -10.26,0.72 -6.16,2.32 -7,10.55 -1.55,14.09 3.06,1.99 7.91,1.61 11.67,1.54 a 0.57,0.58 85.5 0 1 0.58,0.49 q 0.37,2.61 0.21,6.62 c -0.33,8.06 9.51,11.91 14.45,5.46 2.26,-2.94 1.65,-7.56 1.58,-11.28 a 1.42,1.42 0 0 1 1.42,-1.45 c 3.25,0.01 7.5,0.49 10.31,-0.79 6.12,-2.78 5.38,-12.54 -0.94,-14.7 -2.82,-0.96 -6.82,-0.29 -10.22,-0.74 a 0.57,0.55 4.7 0 1 -0.49,-0.56 z"
     id="path452" />
  <path
     fill="#010100"
     d="m 407.21,16.86 a 6.06,6.06 0 0 1 -6.06,6.06 6.06,6.06 0 0 1 -6.06,-6.06 6.06,6.06 0 0 1 6.06,-6.06 6.06,6.06 0 0 1 6.06,6.06 z m -0.74,-0.01 a 5.29,5.29 0 0 0 -5.29,-5.29 5.29,5.29 0 0 0 -5.29,5.29 5.29,5.29 0 0 0 5.29,5.29 5.29,5.29 0 0 0 5.29,-5.29 z"
     id="path454" />
  <path
     fill="#010100"
     d="m 402.49,17.08 q -0.02,1.53 1.09,2.86 1.16,1.4 -0.34,0.38 -1.23,-0.83 -1.68,-2.26 a 0.92,0.9 0.2 0 0 -0.63,-0.62 l -0.43,-0.12 a 0.55,0.56 5.8 0 0 -0.7,0.58 l 0.16,1.8 a 0.45,0.45 0 0 1 -0.49,0.49 q -0.2,-0.02 -0.31,-0.2 a 0.64,0.6 30.9 0 1 -0.09,-0.32 l -0.02,-5.13 a 0.87,0.85 74.3 0 1 0.4,-0.73 c 1.73,-1.09 5.32,0.25 3.38,2.42 a 1.3,1.29 67 0 0 -0.34,0.85 z m -0.2506,-1.582 a 1.28,1.1 1.7 0 0 -1.2468,-1.1375 1.28,1.1 1.7 0 0 -1.312,1.0615 1.28,1.1 1.7 0 0 1.2468,1.1375 1.28,1.1 1.7 0 0 1.312,-1.0615 z"
     id="path456" />
  <path
     fill="#010100"
     d="m 124.03,33.62 -2.59,29.44 a 0.6,0.6 0 0 1 -0.57,0.54 l -2.39,0.12 a 0.55,0.54 1.8 0 1 -0.57,-0.6 l 4.12,-39.46 a 0.63,0.63 0 0 1 0.67,-0.57 l 2.17,0.12 a 1.06,1.05 77.5 0 1 0.88,0.57 l 16.26,32 q 0.44,0.87 0.86,-0.01 l 15.34,-32.02 a 0.98,0.98 0 0 1 0.9,-0.56 h 2.29 a 0.54,0.53 87 0 1 0.53,0.48 c 1.54,13.04 3.68,26.48 4.41,39.58 a 0.49,0.49 0 0 1 -0.5,0.52 l -4.34,-0.11 a 0.56,0.56 0 0 1 -0.54,-0.49 c -0.3,-2.8 -2.98,-29.48 -3.55,-29.64 a 0.27,0.28 20.2 0 0 -0.31,0.15 l -13.97,29.45 a 0.98,1 12.9 0 1 -0.89,0.57 l -1.42,-0.01 a 0.97,0.98 76.6 0 1 -0.87,-0.53 c -1.4,-2.73 -15.13,-29.9 -15.78,-29.71 a 0.19,0.2 83.2 0 0 -0.14,0.17 z"
     id="path458" />
  <path
     fill="#010100"
     d="m 180.69,25.9 a 0.45,0.45 0 0 0 -0.45,0.45 l -0.01,13.68 a 0.61,0.62 1 0 0 0.59,0.62 L 193.97,41 a 0.53,0.53 0 0 1 0.51,0.46 q 0.29,2.06 -1.49,2.01 -6.1,-0.17 -12.16,0.33 a 0.65,0.65 0 0 0 -0.6,0.65 v 15.99 a 0.5,0.5 0 0 0 0.5,0.5 h 15.62 a 0.63,0.63 0 0 1 0.63,0.63 v 1.49 a 0.63,0.63 0 0 1 -0.63,0.63 h -20.99 a 0.63,0.63 0 0 1 -0.63,-0.63 V 23.67 a 0.51,0.51 0 0 1 0.52,-0.51 l 19.95,0.03 a 0.56,0.56 0 0 1 0.55,0.67 l -0.32,1.52 a 0.74,0.74 0 0 1 -0.72,0.58 z"
     id="path460" />
  <path
     fill="#010100"
     d="m 378.73,60.94 h 15.68 a 0.6,0.6 0 0 1 0.59,0.69 l -0.23,1.46 a 0.7,0.7 0 0 1 -0.69,0.6 h -20.85 a 0.5,0.5 0 0 1 -0.5,-0.5 V 23.77 a 0.61,0.61 0 0 1 0.61,-0.61 l 19.7,0.04 a 0.47,0.47 0 0 1 0.46,0.55 l -0.27,1.62 a 0.7,0.71 4.9 0 1 -0.69,0.59 l -13.76,-0.05 a 0.6,0.6 0 0 0 -0.61,0.6 l 0.09,13.54 a 0.6,0.6 0 0 0 0.58,0.6 L 391.71,41 a 0.6,0.61 82.9 0 1 0.57,0.44 q 0.56,1.89 -1.04,1.95 -6.27,0.23 -12.51,0.35 a 0.5,0.51 89.4 0 0 -0.5,0.5 v 16.2 a 0.5,0.5 0 0 0 0.5,0.5 z"
     id="path462" />
  <path
     fill="#010100"
     d="m 232.87,27.01 c 7.24,5.4 8.91,15.27 5.67,23.53 -5.85,14.93 -21.06,14.05 -34.57,12.66 a 0.55,0.53 3 0 1 -0.49,-0.53 V 24.41 a 0.76,0.77 87.5 0 1 0.7,-0.76 c 8.47,-0.76 21.44,-2.05 28.69,3.36 z m 0.68,21.7 C 235.39,31.04 227.33,23.95 209.8,26.04 a 0.64,0.65 86.5 0 0 -0.57,0.64 v 33.51 a 0.72,0.72 0 0 0 0.7,0.72 c 10.36,0.26 22.21,1.34 23.62,-12.2 z"
     id="path464" />
  <rect
     fill="#010100"
     x="248.23"
     y="23.190001"
     width="6"
     height="40.5"
     rx="0.31"
     id="rect466" />
  <path
     fill="#010100"
     d="m 262.98,38.42 c 2.33,-15.18 15.42,-16.1 28.73,-14.82 a 0.46,0.46 0 0 1 0.39,0.61 l -1.22,3.65 a 0.58,0.58 0 0 1 -0.7,0.37 c -6.47,-1.76 -19.08,-4.06 -20.86,4.86 -1.33,6.72 -2.39,21.43 4.51,26.15 4.62,3.16 13.3,1.49 18.61,-0.07 a 0.39,0.38 76.9 0 1 0.49,0.31 c 0.29,1.73 -0.7,1.79 -2.17,2.3 -19.54,6.8 -30.83,-3.5 -27.78,-23.36 z"
     id="path468" />
  <path
     fill="#010100"
     d="m 295.57,62.95 c 4.88,-12.71 9.71,-25.53 14.94,-38.09 a 1.21,1.17 1.9 0 1 0.74,-0.67 l 3.28,-1.04 a 0.67,0.68 72.1 0 1 0.84,0.42 l 14.07,39.73 a 0.37,0.37 0 0 1 -0.36,0.5 l -4.22,-0.14 a 0.87,0.87 0 0 1 -0.8,-0.6 l -4.48,-13.47 a 0.64,0.64 0 0 0 -0.62,-0.44 l -14.25,0.35 a 0.84,0.83 8.7 0 0 -0.76,0.55 q -2.11,5.67 -4.07,11.31 c -0.76,2.16 -1.7,3.06 -4.01,2.25 a 0.5,0.52 19.8 0 1 -0.3,-0.66 z m 9.67,-16.47 a 0.31,0.31 0 0 0 0.29,0.42 l 12.69,0.08 a 0.31,0.31 0 0 0 0.3,-0.41 L 312.3,28.66 a 0.31,0.31 0 0 0 -0.59,-0.01 z"
     id="path470" />
  <path
     fill="#010100"
     d="m 352.71,46.63 c 2.75,5.22 7.28,13.75 13.11,14.97 a 1.11,1.12 81 0 1 0.75,0.54 q 0.46,0.84 -0.62,1.18 -8.22,2.62 -12.28,-4.61 -3.28,-5.83 -6.37,-11.74 a 0.99,1 76.1 0 0 -0.88,-0.53 h -4.56 a 0.63,0.63 0 0 0 -0.63,0.63 v 15.75 a 0.62,0.62 0 0 1 -0.62,0.62 h -4 a 0.63,0.63 0 0 1 -0.63,-0.63 V 23.95 a 0.52,0.52 0 0 1 0.49,-0.52 c 8.06,-0.55 21.63,-2.43 23.97,8.02 q 1.37,6.14 -2.89,11.04 c -1.24,1.43 -3.11,2.15 -4.68,3.38 a 0.62,0.61 57.3 0 0 -0.16,0.76 z m -10.89,-2.81 c 7.55,0.33 13.69,-0.73 13.22,-9.64 -0.43,-8.16 -6.5,-9.2 -13.3,-8.3 a 0.58,0.59 86.1 0 0 -0.51,0.58 v 16.75 a 0.61,0.61 0 0 0 0.59,0.61 z"
     id="path472" />
  <rect
     fill="#ae1022"
     x="117.77"
     y="69.410004"
     width="276.62"
     height="1.78"
     rx="0.76999998"
     id="rect474" />
  <path
     fill="#ae1022"
     d="m 300.37,74.75 c 4.76,4.84 9.85,10.05 14.03,15.37 a 0.53,0.52 59.1 0 0 0.61,0.16 l 0.29,-0.12 a 0.21,0.22 76.4 0 0 0.13,-0.21 Q 314.65,82.74 315.1,75.5 a 0.67,0.67 0 0 1 0.89,-0.59 l 0.45,0.16 a 0.81,0.8 9.7 0 1 0.54,0.76 V 95.3 q 0,1.25 -0.86,0.35 -6.84,-7.1 -13.41,-14.45 -0.51,-0.57 -0.59,-0.62 -0.93,-0.55 -0.93,0.61 l 0.06,13.54 a 0.77,0.78 81.3 0 1 -0.55,0.74 l -0.4,0.12 a 0.41,0.41 0 0 1 -0.53,-0.39 l -0.26,-20.09 q -0.01,-1.25 0.86,-0.36 z"
     id="path476" />
  <path
     fill="#ae1022"
     d="m 361.4891,86.802 a 8.72,8.72 0 0 1 -8.5665,8.8709 l -1.7797,0.031 a 8.72,8.72 0 0 1 -8.8709,-8.5664 l -0.0611,-3.4995 a 8.72,8.72 0 0 1 8.5665,-8.8709 l 1.7797,-0.031 a 8.72,8.72 0 0 1 8.8709,8.5664 z M 358.565,82.2244 A 6.07,6.07 0 0 0 352.2869,76.37 l -1.4592,0.0509 a 6.07,6.07 0 0 0 -5.8544,6.2782 l 0.2017,5.7765 a 6.07,6.07 0 0 0 6.2781,5.8544 l 1.4592,-0.0509 a 6.07,6.07 0 0 0 5.8544,-6.2782 z"
     id="path478" />
  <path
     fill="#ae1022"
     d="m 386.17,76.13 q 0.47,-1.17 2.2,-1.29 a 0.76,0.76 0 0 1 0.78,0.5 l 7.14,19.53 a 0.51,0.52 80.1 0 1 -0.49,0.69 h -1.44 a 0.84,0.84 0 0 1 -0.79,-0.55 l -2.19,-6.19 a 1.14,1.17 80.3 0 0 -1.11,-0.77 l -6.41,0.11 a 0.84,0.82 13.7 0 0 -0.71,0.42 c -0.76,1.4 -2.4,7.56 -4.18,6.85 a 0.53,0.53 0 0 1 -0.29,-0.68 q 3.77,-9.34 7.49,-18.62 z m -2.39,9.91 a 0.61,0.61 0 0 0 0.56,0.83 l 5.48,0.03 a 0.61,0.61 0 0 0 0.58,-0.82 l -2.7,-7.41 a 0.61,0.61 0 0 0 -1.15,-0.01 z"
     id="path480" />
  <path
     fill="#ae1022"
     d="m 286.23,76.65 q 0.71,-1.8 2.03,-1.73 a 1.61,1.61 0 0 1 1.42,1.06 l 6.82,18.96 a 0.49,0.49 0 0 1 -0.29,0.63 c -2.92,1.07 -4.04,-5.26 -4.67,-6.82 a 0.9,0.88 78.5 0 0 -0.82,-0.56 h -6.65 a 0.94,0.95 11 0 0 -0.88,0.6 l -2.51,6.16 a 0.79,0.79 0 0 1 -0.75,0.5 h -0.55 a 0.45,0.45 0 0 1 -0.41,-0.62 q 3.71,-9.07 7.26,-18.18 z m -2.03,9.46 a 0.63,0.63 0 0 0 0.6,0.84 l 5.4,-0.02 a 0.63,0.63 0 0 0 0.58,-0.85 l -2.73,-7.49 a 0.63,0.63 0 0 0 -1.19,0.01 z"
     id="path482" />
  <path
     fill="#ae1022"
     d="m 325.54,78.33 q -2.3,6.68 0,13.36 1.11,3.21 4.47,2.75 l 4.54,-0.61 a 0.72,0.72 0 0 0 0.63,-0.7 l 0.07,-5.45 a 0.67,0.66 3.3 0 0 -0.6,-0.67 l -3.37,-0.34 Q 330.51,86.6 331.1,86.1 c 0.95,-0.81 4.87,-0.29 6.27,-0.28 a 0.59,0.59 0 0 1 0.59,0.59 l 0.03,6.77 a 0.86,0.87 76.5 0 1 -0.48,0.77 c -10.72,5.28 -17.89,-1.37 -15.46,-12.33 1.48,-6.67 7.83,-7.23 14.21,-6.32 a 0.59,0.59 0 0 1 0.44,0.84 l -0.32,0.67 a 0.81,0.82 15 0 1 -0.77,0.45 l -7.88,-0.41 a 2.19,2.2 11.1 0 0 -2.19,1.48 z"
     id="path484" />
  <path
     fill="#ae1022"
     d="m 369.35,93.94 h 7.06 a 0.32,0.32 0 0 1 0.32,0.32 v 0.89 a 0.32,0.32 0 0 1 -0.32,0.32 l -9.8,0.06 a 0.32,0.32 0 0 1 -0.32,-0.32 l 0.04,-19.71 a 0.32,0.32 0 0 1 0.33,-0.32 l 1.98,0.04 a 0.32,0.32 0 0 1 0.31,0.32 l 0.08,18.08 a 0.32,0.32 0 0 0 0.32,0.32 z"
     id="path486" />
</svg>
