<?xml version="1.0" encoding="UTF-8" standalone="no"?>
<svg
   version="1.1"
   viewBox="0 0 190.25391 143.54172"
   id="svg677"
   sodipodi:docname="protteja.svg"
   inkscape:version="1.2.2 (b0a8486, 2022-12-01)"
   width="190.25391"
   height="143.54172"
   xmlns:inkscape="http://www.inkscape.org/namespaces/inkscape"
   xmlns:sodipodi="http://sodipodi.sourceforge.net/DTD/sodipodi-0.dtd"
   xmlns="http://www.w3.org/2000/svg"
   xmlns:svg="http://www.w3.org/2000/svg">
  <defs
     id="defs681" />
  <sodipodi:namedview
     id="namedview679"
     pagecolor="#ffffff"
     bordercolor="#000000"
     borderopacity="0.25"
     inkscape:showpageshadow="2"
     inkscape:pageopacity="0.0"
     inkscape:pagecheckerboard="0"
     inkscape:deskcolor="#d1d1d1"
     showgrid="false"
     inkscape:zoom="2.6467897"
     inkscape:cx="66.873466"
     inkscape:cy="112.21141"
     inkscape:window-width="1920"
     inkscape:window-height="1080"
     inkscape:window-x="1440"
     inkscape:window-y="0"
     inkscape:window-maximized="0"
     inkscape:current-layer="svg677" />
  <g
     stroke-width="2"
     fill="none"
     stroke-linecap="butt"
     id="g601"
     transform="translate(-2.2468176,-1.5743497)" />
  <a
     id="a684"
     transform="translate(-2.2468176,-1.5743497)">
    <path
       fill="#585e62"
       fill-opacity="0.824"
       d="M 96.83,79.67 C 89.16,76.49 68.96,64.61 68.87,55.27 68.71,39.33 68.68,23.806667 68.78,8.7 c 0.0067,-1.3466667 0.653333,-2.23 1.94,-2.65 16.94,-5.56 37.98,-6.63 54.33,0.77 0.27371,0.1224201 0.44994,0.3965633 0.45,0.7 v 49.73 c 1.4e-4,0.32622 -0.0936,0.645591 -0.27,0.92 -6.22,9.64 -16.65,16.8 -27.31,21.49 -0.350905,0.152729 -0.74502,0.156345 -1.09,0.01 z M 73.19,9.11 c -0.288875,0.1047705 -0.868362,0.3624934 -0.91177,0.67 -1.26717,16.014192 0.09957,31.453362 0.23177,45.44 0,1.24 0.4,2.33 1.2,3.27 6.313333,7.48 13.956667,13.18 22.93,17.1 0.524847,0.234065 1.127188,0.219373 1.64,-0.04 8.92,-4.48 17.91,-10.48 23.53,-18.85 0.18325,-0.274622 0.88549,-2.090668 0.89842,-2.41768 C 123.3221,41.333798 122.32425,23.969687 122.44947,9.6561746 122.33375,8.3990801 122.64929,8.9974451 121.81313,8.8099723 107.02997,3.3809773 86.771267,3.5248605 73.19,9.11 Z"
       id="path603"
       sodipodi:nodetypes="ccccccccccccccccccccc" />
  </a>
  <path
     fill="#0e4853"
     d="m 103.53318,5.6056503 c 4.43777,0.6307536 9.65317,1.6199431 13.74,2.84 0.72088,0.233355 1.15719,0.964818 1.02,1.7099997 -0.18667,0.973333 -0.36267,-0.8264097 -0.009,0.04692 -0.10095,2.596006 0.22394,8.69416 -0.0307,10.933077 v 33.25 c 2.6e-4,0.355779 -0.12338,0.701966 -0.35,0.98 -6.08667,7.473333 -13.54,13.186667 -22.359998,17.14 -0.313155,0.140185 -0.668541,0.143812 -0.98,0.01 -8.093633,-3.55333 -15.083633,-8.616664 -20.9703,-15.189997 -1.186667,-1.326667 -1.783333,-2.876667 -1.79,-4.65 l -0.19,-43.2899997 c 6.66e-4,-0.305382 0.19399,-0.575231 0.48,-0.67 7.2,-2.4 14.603333,-3.5233333 22.21,-3.37 2.984476,-0.1085704 6.369528,0.061475 9.229998,0.26 z m -3.47,24.3199997 1.36,0.2 c 1.9,0.266667 2.71,-0.55 2.43,-2.45 -0.46,-3.16 -1.24,-7.53 -4.029998,-9.32 -3.19,-2.05 -8.87,-0.01 -8.76,4.43 0.05,1.9 1.64,3.14 2.69,4.69 0.161722,0.235575 0.127774,0.553838 -0.08,0.75 -10.6,9.9 -16.63,21.29 -3.53,32.49 0.226323,0.193747 0.513627,0.300156 0.81,0.3 l 13.119998,-0.13 c 0.0994,0 0.18,-0.08059 0.18,-0.18 v -0.32 c -0.001,-0.199609 -0.12296,-0.38039 -0.31,-0.46 l -2.42,-0.98 c -0.38009,-0.16223 -0.49637,-0.642525 -0.23,-0.95 3.76,-4.413333 5.78333,-9.533333 6.07,-15.36 0.0121,-0.305297 -0.10418,-0.599723 -0.32,-0.81 l -0.77,-0.74 c -0.24325,-0.235825 -0.25216,-0.623246 -0.02,-0.87 1.21333,-1.266667 1.06667,-2.633333 -0.44,-4.1 -1.98,-1.933333 -3.95667,-3.873333 -5.929998,-5.82 -0.31333,-0.306667 -0.25333,-0.43 0.179998,-0.37 z"
     id="path607"
     sodipodi:nodetypes="cccccccccccccccccccccccccsccccccccccc" />
  <path
     fill="#0e4853"
     d="m 103.11318,41.82565 a 0.43,0.41 22.7 0 1 0.19,0.44 q -1.2,6.44 -5.529998,11.3 a 1.45,1.44 17.4 0 1 -0.93,0.48 q -4.09,0.44 -5.97,-2.33 c -2.82,-4.14 1.27,-11.61 3.96,-14.95 a 0.37,0.38 36.4 0 1 0.51,-0.08 z"
     id="path611" />
  <path
     fill="#054f5a"
     d="m 64.656382,122.50535 a 12.99,13.87 0.4 0 1 -12.8929,-13.9604 12.99,13.87 0.4 0 1 13.0865,-13.779 12.99,13.87 0.4 0 1 12.8929,13.9604 12.99,13.87 0.4 0 1 -13.0865,13.779 z m 0.1481,-1.6597 a 12.23,7.67 89.9 0 0 7.6487,-12.2434 12.23,7.67 89.9 0 0 -7.6913,-12.2166 12.23,7.67 89.9 0 0 -7.6487,12.2434 12.23,7.67 89.9 0 0 7.6913,12.2166 z"
     id="path613" />
  <path
     fill="#054f5a"
     d="m 188.07318,119.20565 1.88,1.04 a 0.58,0.57 29 0 1 0.23,0.78 q -0.16,0.3 -0.69,0.33 -7.55,0.43 -9.49,-6.6 a 0.79,0.79 0 0 0 -0.76,-0.58 h -9.49 a 0.99,1 12.7 0 0 -0.9,0.58 l -2.76,6.05 a 0.97,0.96 11.4 0 1 -0.87,0.57 l -0.57,0.01 a 0.46,0.46 0 0 1 -0.43,-0.64 l 10.99,-24.69 a 1.16,1.16 0 0 1 1.81,-0.41 q 0.82,0.69 1.44,2.33 4,10.45 8.91,20.49 a 1.69,1.66 2 0 0 0.7,0.74 z m -17.95,-7.36 a 0.39,0.39 0 0 0 0.35,0.55 l 7.95,0.05 a 0.39,0.39 0 0 0 0.36,-0.54 l -3.91,-8.93 a 0.39,0.39 0 0 0 -0.71,-0.01 z"
     id="path615" />
  <path
     fill="#054f5a"
     d="m 95.333182,121.02565 a 0.45,0.44 89.3 0 1 -0.43,0.45 l -4.11,0.09 a 0.53,0.53 0 0 1 -0.54,-0.53 v -22.82 a 0.62,0.62 0 0 0 -0.47,-0.6 q -6.36,-1.56 -7.03,4.44 -0.18,1.68 -0.71,0.08 -1.13,-3.37 0.8,-5.93 a 1.2,1.2 0 0 1 0.96,-0.48 l 18.389998,-0.16 q 1.38,-0.01 0.58,1.13 c -0.84,1.19 -5.479998,0.69 -7.049998,0.92 a 0.58,0.59 84.9 0 0 -0.5,0.59 z"
     id="path617" />
  <path
     fill="#054f5a"
     d="m 109.27318,97.45565 -4.71,-0.09 a 0.73,0.74 81.8 0 1 -0.69,-0.51 c -0.26,-0.83 0.39,-1.29 1.16,-1.28 q 8.56,0.11 17.22,-0.26 a 0.97,0.97 0 0 1 1.01,1.01 l -0.01,0.31 a 0.72,0.72 0 0 1 -0.71,0.7 l -7.06,0.05 a 0.61,0.62 89.1 0 0 -0.61,0.62 l 0.18,22.77 a 0.64,0.64 0 0 1 -0.65,0.65 h -4.03 a 0.62,0.63 0 0 1 -0.62,-0.63 v -22.85 a 0.49,0.49 0 0 0 -0.48,-0.49 z"
     id="path619" />
  <path
     fill="#054f5a"
     d="m 134.62318,119.70565 7.5,-0.2 q 2.13,-0.06 3.34,-1.81 l 1.66,-2.42 a 0.37,0.37 0 0 1 0.56,-0.05 l 0.25,0.26 a 0.39,0.38 35 0 1 0.08,0.43 l -1.56,3.68 q -0.75,1.76 -2.67,1.77 l -14.15,0.09 a 0.55,0.55 0 0 1 -0.55,-0.54 q -0.14,-10.55 -0.15,-20.97 -0.01,-3.05 -2.81,-3.29 a 0.42,0.42 0 0 1 -0.38,-0.47 l 0.05,-0.3 a 0.52,0.53 3.7 0 1 0.52,-0.46 q 7.63,0.03 15.26,-0.03 c 4.22,-0.04 6.16,2.18 4.66,6.29 a 0.49,0.49 0 0 1 -0.69,0.27 c -1.05,-0.53 -0.17,-3.52 -2.34,-4.23 q -3.23,-1.05 -8.68,-0.36 a 0.59,0.6 86.1 0 0 -0.52,0.59 v 8.65 a 0.43,0.42 0 0 0 0.43,0.42 l 9.1,-0.13 a 0.86,0.87 79.8 0 1 0.81,0.56 c 0.89,2.46 -8.53,1.41 -9.84,1.36 a 0.48,0.48 0 0 0 -0.5,0.48 v 9.81 a 0.6,0.6 0 0 0 0.62,0.6 z"
     id="path621" />
  <path
     fill="#054f5a"
     d="m 153.44318,121.86565 q 0.1,-12.86 0.06,-25.8 a 0.64,0.64 0 0 1 0.64,-0.64 h 3.98 a 0.55,0.55 0 0 1 0.55,0.54 q 0.23,11.78 -0.03,23.53 c -0.11,5.26 -3.03,8.05 -8.37,7.02 a 0.33,0.33 0 0 1 -0.27,-0.31 v -0.3 a 0.25,0.25 0 0 1 0.18,-0.24 q 3.24,-0.95 3.26,-3.8 z"
     id="path623" />
  <path
     fill="#054f5a"
     d="m 8.3831824,112.15565 0.17,9.09 a 0.54,0.54 0 0 1 -0.56,0.55 l -4.12,-0.15 a 0.63,0.63 0 0 1 -0.61,-0.63 q 0,-10.09 -0.03,-20.09 -0.01,-3.5 -2.77999995,-3.91 a 0.54,0.55 7.7 0 1 -0.45,-0.6 q 0.06,-0.49 0.69,-0.52 12.16999955,-0.5 14.53999955,0.25 c 9.15,2.88 7.8,14.56 -0.98,15.01 q -3.96,0.21 -5.4399996,0.47 a 0.53,0.52 84.2 0 0 -0.43,0.53 z m 0.06,-3.13 a 0.58,0.59 5.6 0 0 0.45,0.56 c 9.8899996,2.17 9.4699996,-14.84 -0.08,-11.8 a 0.57,0.59 81 0 0 -0.41,0.55 z"
     id="path625" />
  <path
     fill="#054f5a"
     d="m 33.013182,110.33565 0.04,10.91 a 0.43,0.43 0 0 1 -0.43,0.43 h -4.08 a 0.53,0.53 0 0 1 -0.53,-0.53 c 0.02,-6.73 -0.33,-13.66 0.02,-20.36 q 0.18,-3.32 -3.03,-3.95 a 0.46,0.46 0 0 1 -0.35,-0.61 c 0.47,-1.3 14.8,-0.64 17.79,0.9 4.65,2.4 5.22,7.94 0.76,11.01 -0.76,0.53 -1.87,0.76 -2.76,1.32 a 0.53,0.52 58.8 0 0 -0.17,0.72 c 2.06,3.48 4.42,8.86 8.32,10.5 a 0.63,0.63 0 0 1 0.37,0.7 q -0.07,0.34 -0.54,0.44 c -10.22,1.96 -10.55,-11.81 -14.76,-12.08 a 0.61,0.6 1.8 0 0 -0.65,0.6 z m 4.12,-12.74 -3.39,-0.13 a 0.72,0.72 0 0 0 -0.74,0.72 v 9.46 a 0.58,0.57 3.4 0 0 0.51,0.57 c 5.64,0.6 8.73,-3.01 6.5,-8.59 q -0.78,-1.96 -2.88,-2.03 z"
     id="path627" />
  <rect
     fill="#94938e"
     x="0.12318233"
     y="137.16565"
     width="40.080002"
     height="0.75999999"
     rx="0.36000001"
     id="rect647" />
  <rect
     fill="#94938e"
     x="149.76318"
     y="137.17564"
     width="40.459999"
     height="0.74000001"
     rx="0.36000001"
     id="rect649"
     style="fill:#565e62;fill-opacity:0.823529" />
  <text
     xml:space="preserve"
     style="font-style:normal;font-variant:normal;font-weight:bold;font-stretch:normal;font-size:192px;font-family:Damascus;-inkscape-font-specification:'Damascus, Bold';font-variant-ligatures:normal;font-variant-caps:normal;font-variant-numeric:normal;font-variant-east-asian:normal;fill:#565e62;fill-opacity:0.823529;stroke-width:7.55906;stroke-dasharray:30.2362, 7.55906;stroke-dashoffset:0.0755906"
     x="178.66872"
     y="44.747017"
     id="text1844"><tspan
       sodipodi:role="line"
       id="tspan1842"
       x="178.66872"
       y="44.747017" /></text>
  <text
     xml:space="preserve"
     style="font-style:normal;font-variant:normal;font-weight:normal;font-stretch:normal;font-size:14.1831px;font-family:Damascus;-inkscape-font-specification:'Damascus, Normal';font-variant-ligatures:normal;font-variant-caps:normal;font-variant-numeric:normal;font-variant-east-asian:normal;fill:#565e62;fill-opacity:0.823529;stroke-width:8.04085;stroke-dasharray:32.1634, 8.04085;stroke-dashoffset:0.0804085"
     x="39.912006"
     y="150.12831"
     id="text1848"
     transform="scale(1.0637373,0.94008171)"><tspan
       sodipodi:role="line"
       id="tspan1846"
       x="39.912006"
       y="150.12831"
       style="stroke-width:8.04085">SEGUROS,S.A.</tspan></text>
</svg>
