<?xml version="1.0" encoding="UTF-8" standalone="no"?>
<svg
   version="1.1"
   viewBox="0 0 240.54082 45.315609"
   id="svg1231"
   sodipodi:docname="Tranquilidade.svg"
   inkscape:version="1.2.2 (b0a8486, 2022-12-01)"
   width="240.54082"
   height="45.315609"
   xmlns:inkscape="http://www.inkscape.org/namespaces/inkscape"
   xmlns:sodipodi="http://sodipodi.sourceforge.net/DTD/sodipodi-0.dtd"
   xmlns:xlink="http://www.w3.org/1999/xlink"
   xmlns="http://www.w3.org/2000/svg"
   xmlns:svg="http://www.w3.org/2000/svg">
  <defs
     id="defs1235">
    <linearGradient
       inkscape:collect="always"
       id="linearGradient5027">
      <stop
         style="stop-color:#26683f;stop-opacity:1;"
         offset="0.41553247"
         id="stop5023" />
      <stop
         style="stop-color:#50a960;stop-opacity:1;"
         offset="0.56151462"
         id="stop9389" />
    </linearGradient>
    <linearGradient
       inkscape:collect="always"
       xlink:href="#linearGradient5027"
       id="linearGradient5029"
       x1="74.408012"
       y1="47.408531"
       x2="74.833206"
       y2="92.26593"
       gradientUnits="userSpaceOnUse"
       gradientTransform="translate(-49.74741,-47.195234)" />
  </defs>
  <sodipodi:namedview
     id="namedview1233"
     pagecolor="#ffffff"
     bordercolor="#000000"
     borderopacity="0.25"
     inkscape:showpageshadow="2"
     inkscape:pageopacity="0.0"
     inkscape:pagecheckerboard="0"
     inkscape:deskcolor="#d1d1d1"
     showgrid="false"
     inkscape:zoom="4.4478205"
     inkscape:cx="104.77041"
     inkscape:cy="14.38907"
     inkscape:window-width="1920"
     inkscape:window-height="1052"
     inkscape:window-x="1440"
     inkscape:window-y="28"
     inkscape:window-maximized="0"
     inkscape:current-layer="svg1231" />
  <path
     id="path5021"
     style="fill:url(#linearGradient5029);fill-opacity:1;stroke-width:7.4768;stroke-dasharray:29.9072, 7.4768;stroke-dashoffset:0.074768"
     d="M 24.023438,0 A 24.023157,22.428701 0 0 0 0.212891,19.646484 24.023157,22.428701 0 0 0 0,22.429687 24.023157,22.428701 0 0 0 24.023438,44.857422 24.023157,22.428701 0 0 0 48.046875,22.429687 24.023157,22.428701 0 0 0 24.023438,0 Z m -5.458985,3.9804688 c 0.34375,-0.0026 0.692706,0.089874 1.046875,0.2773437 l -0.171875,7.7500005 c -0.206659,2.466659 0.491809,4.513963 2.091797,6.140624 0.22401,0.230043 0.53046,0.359669 0.84961,0.359376 l 18.919922,0.0098 c 0.481929,0.0033 0.785497,0.517572 0.548828,0.929688 -0.77,1.339996 -16.768753,0.820312 -19.21875,0.820312 -0.57888,-0.004 -1.007444,0.537004 -0.871094,1.099609 0.426659,1.719999 1.223966,3.36302 2.390625,4.929688 4.246656,7.706642 10.88662,10.221013 19.919922,7.541016 C 37.316999,39.284505 30.004172,39.888423 22.13086,35.648437 17.417544,32.601781 13.926814,28.584301 11.660156,23.597656 9.760158,19.417667 5.759443,19.987813 1.939453,20.257813 L 1.400391,19.96875 1.509766,19.238281 C 1.553016,18.943931 1.736115,18.690072 2,18.558594 l 0.490235,-0.240235 c 5.879983,1.19333 10.266839,-0.481498 13.160156,-5.021484 1.779998,-2.573325 2.410624,-5.415972 1.890625,-8.5292969 -0.04527,-0.2958637 0.127306,-0.5818276 0.410156,-0.6796875 0.2025,-0.070002 0.407042,-0.1058219 0.613281,-0.1074218 z m -4.023437,8.9062502 c 0.02281,-4.12e-4 0.04373,0.01187 0.06641,0.01367 0.07883,0.0035 0.158202,0.01713 0.232422,0.04687 -0.07325,-0.03244 -0.153113,-0.04058 -0.232422,-0.04687 -0.05649,-0.0025 -0.112132,-0.0014 -0.167969,0.0098 0.03317,-0.01034 0.06716,-0.01814 0.101563,-0.02344 z M 0.648438,22.078125 c -0.0018,0.05965 -0.0064,0.120218 -0.0078,0.179688 l -0.002,-0.04102 c 0.0032,-0.04623 0.0064,-0.09246 0.0098,-0.138672 z" />
  <path
     fill="#76c568"
     d="m 167.70456,28.575594 h 4.55 a 0.63,0.63 0 0 1 0.63,0.63 v 1.24 a 0.63,0.63 0 0 1 -0.63,0.63 h -8 a 0.63,0.63 0 0 1 -0.63,-0.63 l 0.02,-14.57 a 0.75,0.75 0 0 1 0.9,-0.73 c 3.52,0.74 2.3,9.94 2.61,12.93 a 0.56,0.55 87.1 0 0 0.55,0.5 z"
     id="path1129" />
  <path
     fill="#76c568"
     d="m 65.414563,18.755595 -0.05,11.43 a 0.71,0.72 86.9 0 1 -0.64,0.71 l -1.9,0.22 a 0.61,0.62 86.7 0 1 -0.69,-0.61 v -11.67 a 0.7,0.7 0 0 0 -0.46,-0.66 c -1.59,-0.6 -5.03,0.44 -4.82,-2.11 a 0.71,0.72 2.6 0 1 0.71,-0.65 l 12.37,-0.12 a 0.51,0.52 4.7 0 1 0.51,0.61 c -0.42,2.44 -2.84,1.73 -4.5,2.17 a 0.72,0.7 83.7 0 0 -0.53,0.68 z"
     id="path1131" />
  <path
     fill="#76c568"
     d="m 80.404564,24.575595 4.01,5.81 a 0.57,0.57 0 0 1 -0.42,0.89 c -4.4,0.38 -6.210001,-7.87 -8.460001,-6.12 a 1.1,1.08 72.4 0 0 -0.42,0.82 c -0.05,1.62 1.17,6.53 -2.62,4.96 a 0.81,0.79 11.9 0 1 -0.49,-0.73 l -0.16,-13.73 a 1.05,1.04 86.7 0 1 0.93,-1.05 c 2.41,-0.27 6.960001,-0.39 8.830001,1.44 2.57,2.52 1.14,4.95 -1.1,6.9 a 0.61,0.61 0 0 0 -0.1,0.81 z m -1.600001,-6.13 -2.76,-0.67 a 0.75,0.76 6.2 0 0 -0.93,0.75 l 0.05,2.95 a 1.43,1.43 0 0 0 1.74,1.36 q 2.52,-0.56 2.830001,-3.04 a 1.23,1.24 10.3 0 0 -0.930001,-1.35 z"
     id="path1133" />
  <path
     fill="#76c568"
     d="m 94.064564,15.915594 a 3.8,3.77 5.8 0 1 1.33,1.62 l 5.389996,12.52 a 0.7,0.7 0 0 1 -0.25,0.87 c -2.549996,1.76 -3.179996,-1.68 -4.049996,-3.1 a 1.03,1.04 74.7 0 0 -0.89,-0.5 h -4.93 a 0.91,0.92 12.8 0 0 -0.83,0.53 c -0.84,1.73 -0.68,3.84 -3.47,3.38 a 0.86,0.86 0 0 1 -0.64,-1.21 q 3.07,-6.69 5.95,-13.77 c 0.6,-1.47 1.38,-1.04 2.39,-0.34 z m -2.76,8.09 a 0.67,0.67 0 0 0 0.63,0.92 l 2.6,-0.05 a 0.67,0.67 0 0 0 0.6,-0.93 l -1.35,-3.12 a 0.67,0.67 0 0 0 -1.24,0.02 z"
     id="path1135" />
  <path
     fill="#76c568"
     d="m 113.95456,25.525594 q 0.85,1.12 0.85,-0.28 v -9.36 a 0.56,0.55 1 0 1 0.58,-0.55 l 1.84,0.07 a 0.69,0.69 0 0 1 0.66,0.69 v 14.21 a 0.7,0.69 80.7 0 1 -0.47,0.66 c -1.23,0.41 -2.15,0.21 -3.06,-0.77 q -4.14,-4.49 -7.81,-9.35 a 0.68,0.68 0 0 0 -0.81,-0.22 c -0.52,0.23 -0.07,8.48 -0.08,9.59 a 0.73,0.73 0 0 1 -0.68,0.72 l -1.82,0.15 a 0.58,0.57 86.7 0 1 -0.62,-0.56 l -0.44,-13.94 a 1,0.99 73.7 0 1 0.48,-0.89 c 3.28,-2 9.57,7.44 11.38,9.83 z"
     id="path1137" />
  <path
     fill="#76c568"
     d="m 129.26027,29.205612 c 0.53333,0.613334 1.7776,1.757609 0.96427,1.684276 -3.21,-0.29 -8.58998,-1.454294 -9.71998,-4.674294 -5.51,-15.68 26.68,-13.9 13.83,3.73 -0.18738,0.255262 -0.14829,0.611458 0.09,0.82 l 2.57,2.26 c 0.24832,0.21429 0.18331,0.615164 -0.12,0.74 -2.73,1.14 -5.50714,-2.418569 -7.37714,-4.038569 -0.52,-0.453333 -0.45333,-0.783333 0.2,-0.99 6.95,-2.24 5.06714,-12.231431 -1.98286,-11.081431 -4.06,0.67 -5.65,4.9 -3.92,8.43 0.89,1.8 3.91571,1.330018 5.46571,3.120018 z"
     id="path1139"
     sodipodi:nodetypes="cccccccccccc" />
  <path
     fill="#76c568"
     d="m 153.25456,15.545594 a 1.03,1.03 0 0 1 0.59,0.9 c 0.09,3.26 0.61,9.13 -0.83,11.75 -2.43,4.43 -11.59,4.2 -13.29,-0.53 -0.99,-2.75 -0.3,-8.31 -0.51,-11.47 a 0.65,0.64 89.2 0 1 0.67,-0.69 l 1.87,0.08 a 0.79,0.79 0 0 1 0.76,0.78 l 0.15,9.16 q 0.04,2.23 2.14,2.97 c 10.82,3.82 1.91,-16.03 8.45,-12.95 z"
     id="path1141" />
  <rect
     fill="#76c568"
     x="156.53201"
     y="15.957794"
     transform="rotate(-0.2)"
     width="3.24"
     height="15.94"
     rx="1.21"
     id="rect1143" />
  <rect
     fill="#76c568"
     x="175.2551"
     y="15.146802"
     transform="rotate(0.1)"
     width="3.3800001"
     height="15.84"
     rx="0.93000001"
     id="rect1145" />
  <path
     fill="#76c568"
     d="m 182.21456,15.445594 c 5.33,-0.78 13.79,0.16 14.14,7.17 0.41,8.31 -8.32,8.95 -14.31,8.38 a 0.48,0.48 0 0 1 -0.44,-0.48 l 0.04,-14.43 a 0.66,0.66 0 0 1 0.57,-0.64 z m 3.58,13.13 c 8.86,1.74 10.38,-11.69 -0.1,-10.75 a 1.04,1.03 87.3 0 0 -0.93,1.03 l 0.04,8.52 a 1.22,1.22 0 0 0 0.99,1.2 z"
     id="path1147" />
  <path
     fill="#76c568"
     d="m 200.69456,27.955594 q -0.4,3.37 -3.74,3.43 a 0.53,0.54 10.9 0 1 -0.5,-0.74 l 6.19,-14.6 a 1.02,1.03 5.7 0 1 0.73,-0.6 q 1.66,-0.35 2.48,1.43 4.02,8.76 6.12,13.86 0.35,0.83 -0.54,0.65 l -2.44,-0.5 a 1.08,1.05 87.5 0 1 -0.8,-0.75 l -0.62,-2.18 a 0.91,0.9 81.6 0 0 -0.88,-0.66 l -5.38,0.09 a 0.63,0.64 2.6 0 0 -0.62,0.57 z m 4.05,-7.34 a 0.63,0.63 0 0 0 -1.19,-0.01 l -1.2,3.41 a 0.63,0.63 0 0 0 0.63,0.84 l 2.3,-0.13 a 0.63,0.63 0 0 0 0.56,-0.83 z"
     id="path1149" />
  <path
     fill="#76c568"
     d="m 214.64456,31.095594 a 0.78,0.77 1.6 0 1 -0.74,-0.77 l -0.06,-14.15 a 0.83,0.83 0 0 1 0.8,-0.84 c 3.12,-0.12 7.18,-0.09 9.86,1.27 6.5,3.3 4.93,12.29 -2.11,13.91 q -3.53,0.82 -7.75,0.58 z m 2.28,-12.6 0.1,9.21 a 0.82,0.82 0 0 0 0.66,0.79 c 8.88,1.72 11.15,-10.68 0.08,-10.84 a 0.82,0.83 0.3 0 0 -0.84,0.84 z"
     id="path1151" />
  <path
     fill="#76c568"
     d="m 233.91456,18.795594 -0.01,2.26 a 0.78,0.78 0 0 0 0.78,0.78 l 4.21,-0.01 a 0.66,0.65 2 0 1 0.66,0.7 l -0.07,1.12 a 0.72,0.72 0 0 1 -0.72,0.68 h -4.08 a 0.77,0.77 0 0 0 -0.78,0.77 v 2.71 a 0.77,0.77 0 0 0 0.78,0.77 h 4.77 a 0.74,0.75 85.5 0 1 0.74,0.62 l 0.18,1.17 a 0.62,0.62 0 0 1 -0.61,0.71 h -8.22 a 0.6,0.6 0 0 1 -0.6,-0.59 l -0.21,-14.64 a 0.5,0.5 0 0 1 0.5,-0.51 l 8.36,-0.01 a 0.57,0.56 85.4 0 1 0.57,0.49 c 0.33,2.35 -4.09,2.08 -5.63,2.28 a 0.71,0.71 0 0 0 -0.62,0.7 z"
     id="path1153" />
  <text
     xml:space="preserve"
     style="font-weight:bold;font-size:7.1208px;font-family:Damascus;-inkscape-font-specification:'Damascus, Bold';fill:#90c885;fill-opacity:0.984314;stroke-width:8.11937;stroke-dasharray:32.4774, 8.11937;stroke-dashoffset:0.0811937"
     x="67.064522"
     y="47.203876"
     id="text1408"
     transform="scale(1.074125,0.93099035)"><tspan
       sodipodi:role="line"
       id="tspan1406"
       x="67.064522"
       y="47.203876"
       style="stroke-width:8.11937">CORPORAÇÃO ANGOLANA DE SEGUROS</tspan></text>
</svg>
