<?xml version="1.0" encoding="UTF-8" standalone="no"?>
<svg
   version="1.1"
   viewBox="0 0 367.78018 67.710907"
   id="svg713"
   sodipodi:docname="Unisaude.svg"
   width="367.78018"
   height="67.710907"
   inkscape:version="1.2.2 (b0a8486, 2022-12-01)"
   xmlns:inkscape="http://www.inkscape.org/namespaces/inkscape"
   xmlns:sodipodi="http://sodipodi.sourceforge.net/DTD/sodipodi-0.dtd"
   xmlns="http://www.w3.org/2000/svg"
   xmlns:svg="http://www.w3.org/2000/svg">
  <defs
     id="defs717" />
  <sodipodi:namedview
     id="namedview715"
     pagecolor="#ffffff"
     bordercolor="#000000"
     borderopacity="0.25"
     inkscape:showpageshadow="2"
     inkscape:pageopacity="0.0"
     inkscape:pagecheckerboard="0"
     inkscape:deskcolor="#d1d1d1"
     showgrid="false"
     inkscape:zoom="2.3838384"
     inkscape:cx="185.41525"
     inkscape:cy="49.5"
     inkscape:window-width="1920"
     inkscape:window-height="1052"
     inkscape:window-x="1440"
     inkscape:window-y="28"
     inkscape:window-maximized="0"
     inkscape:current-layer="svg713" />
  <path
     fill="#f58b33"
     d="m 31.56,0 h 7.75 C 57.04,2.87 71.11,17.52 70.5,35.99 70.05,49.61 61.07,64.05 47.12,67.09 32.35,70.3 20.15,60.76 19.85,45.49 q -0.17,-8.59 -0.06,-17.14 0.03,-2.23 2.26,-2.29 l 4.12,-0.11 q 3.39,-0.09 3.35,3.3 -0.12,9.48 0.1,18.56 C 29.93,60.74 45.09,62.27 53.07,55.04 63.85,45.27 64.78,28.75 55.27,17.72 44.25,4.93 23.39,5.91 13.76,19.59 2.77,35.19 9.47,56.9 25.76,66.17 a 0.34,0.34 0 0 1 0.13,0.47 c -0.08,0.13 -0.55,0.34 -0.76,0.33 C 9.63,66.4 1.49,52.33 0,38.44 V 31.69 Q 4.63,4.76 31.56,0 Z"
     id="path689" />
  <path
     fill="#0091d2"
     d="m 272.26,12 7.39,-0.01 a 0.94,0.94 0 0 1 0.72,1.54 l -6.69,8.03 a 0.94,0.94 0 0 1 -0.69,0.34 l -5.02,0.14 a 0.94,0.94 0 0 1 -0.86,-1.38 l 4.32,-8.16 a 0.94,0.94 0 0 1 0.83,-0.5 z"
     id="path691" />
  <ellipse
     fill="#0091d2"
     cx="173.49367"
     cy="15.706599"
     transform="rotate(0.5)"
     rx="5.8099999"
     ry="5.0599999"
     id="ellipse693" />
  <path
     fill="#0091d2"
     d="m 317.55,54.63 q -8.69,6.88 -17.07,1.93 C 288.89,49.7 290.1,30.53 302.65,26.19 q 8.75,-3.03 14.87,3.46 0.47,0.49 0.47,-0.19 l 0.02,-14.08 q 0.01,-2.35 2.36,-2.37 l 4.96,-0.02 q 2.41,-0.01 2.41,2.4 l 0.01,40.08 a 2.28,2.29 81.1 0 1 -1.59,2.17 c -2.38,0.75 -8.17,1.03 -8.24,-2.84 q 0,-0.47 -0.37,-0.17 z m -7.5343,-3.8109 a 7.99,8.9 0.8 0 0 8.1135,-8.7875 7.99,8.9 0.8 0 0 -7.8649,-9.0107 7.99,8.9 0.8 0 0 -8.1135,8.7875 7.99,8.9 0.8 0 0 7.8649,9.0107 z"
     id="path695" />
  <path
     fill="#0091d2"
     d="m 140.63,29.55 c 5.79,-7.15 16.17,-4.82 19.15,2.28 2.46,5.85 1.51,16.69 1.46,24.06 a 1.56,1.55 80.2 0 1 -1.02,1.45 q -3.13,1.16 -6.47,0.47 -2.4,-0.49 -2.31,-2.94 c 0.16,-4.15 1.15,-17.63 -1.76,-20.54 -2.81,-2.8 -7.82,-0.17 -9.09,3.25 -1.52,4.09 -0.62,13.16 -0.57,17.79 q 0.02,2.54 -2.52,2.56 l -4.6,0.04 q -2.66,0.03 -2.66,-2.63 l 0.02,-27.48 a 1.81,1.82 88.8 0 1 1.75,-1.81 c 3.24,-0.12 7.65,-1.2 8.26,3.4 q 0.06,0.46 0.36,0.1 z"
     id="path697" />
  <path
     fill="#0091d2"
     d="m 193.75,35.01 a 1.23,1.23 0 0 0 0.73,1.43 c 5.38,2.22 13.5,4.16 15.07,10.3 3.32,12.93 -21.04,16.29 -25.41,4.67 a 1.84,1.83 63.4 0 1 0.73,-2.2 c 7.11,-4.55 8.89,6.23 15.55,0.7 a 1.17,1.15 72.3 0 0 0.42,-0.83 c 0.15,-3.42 -12.15,-5.14 -14.74,-9.93 -3.07,-5.71 0.7,-11.54 6.57,-13.21 q 7.3,-2.07 13.45,2.68 2.6,2.01 0.75,4.74 -1.09,1.61 -4.73,1.25 c -2.34,-0.23 -6.85,-5.95 -8.39,0.4 z"
     id="path699" />
  <path
     fill="#0091d2"
     d="m 238.7,29.18 c 0.29,-4.27 4.9,-3.25 7.7,-3.14 q 2.1,0.08 2.1,2.18 v 27.5 a 2.02,2.01 84.7 0 1 -1.64,1.98 c -2.17,0.42 -6.04,0.89 -7.54,-1.05 a 1.51,1.53 24.9 0 1 -0.31,-0.86 l -0.05,-1.08 q -0.04,-0.97 -0.71,-0.26 -4.31,4.54 -10.75,3.99 c -19.91,-1.73 -18.33,-33.66 1.76,-33.19 q 5.07,0.12 9.07,4.07 0.34,0.34 0.37,-0.14 z m -7.8558,21.6686 a 7.98,8.93 1 0 0 8.1346,-8.7893 7.98,8.93 1 0 0 -7.823,-9.0679 7.98,8.93 1 0 0 -8.1346,8.7893 7.98,8.93 1 0 0 7.823,9.0679 z"
     id="path701" />
  <path
     fill="#0091d2"
     d="m 342.83,44.24 c 0.6,8.08 12.35,7.34 17.37,4.3 a 1.34,1.33 35.4 0 1 0.99,-0.16 q 3.26,0.77 3.95,4.14 a 1.2,1.2 0 0 1 -0.2,0.95 q -1.53,2.14 -4.43,3.32 c -9.18,3.74 -21.57,1.58 -25.87,-8.21 -5.04,-11.46 3.99,-23.46 16.03,-23.3 9.74,0.14 17.02,5.96 17.11,16.17 q 0.02,2.09 -2.07,2.11 l -22.44,0.22 a 0.43,0.44 88.2 0 0 -0.44,0.46 z m 1.24,-8.41 Q 341.98,38 344.99,38 h 13.03 a 0.44,0.44 0 0 0 0.41,-0.6 c -2.47,-6.32 -10.31,-5.78 -14.36,-1.57 z"
     id="path703" />
  <path
     fill="#f58b33"
     d="M 38.44,54.87 A 0.55,0.55 0 0 1 38.14,54 C 42.52,48.3 41.04,36.09 41,28.84 Q 40.99,25.99 43.84,26 l 4.4,0.02 q 2.43,0.01 2.47,2.44 0.13,7.79 -0.03,15.98 c -0.16,7.69 -3.59,12.67 -12.24,10.43 z"
     id="path705" />
  <path
     fill="#0091d2"
     d="m 112.61,54.2 c -6.98,8 -19.88,4.89 -20.49,-6.67 q -0.5,-9.36 -0.33,-19.14 0.04,-2.42 2.46,-2.41 l 4.5,0.02 q 2.49,0.01 2.49,2.5 l 0.03,15.81 q 0,2.3 1.14,4.29 c 1.8,3.18 6.27,2.37 8.34,-0.12 3.43,-4.12 2.34,-14.65 2.21,-19.84 q -0.06,-2.59 2.53,-2.62 l 4.21,-0.05 q 3.01,-0.04 3.02,2.97 l 0.02,25.74 q 0.01,2.54 -2.46,3.14 c -2.71,0.67 -7.68,0.78 -7.4,-3.51 q 0.03,-0.46 -0.27,-0.11 z"
     id="path707" />
  <rect
     fill="#0091d2"
     x="168.50999"
     y="25.98"
     width="9.7399998"
     height="31.98"
     rx="2.96"
     id="rect709" />
  <path
     fill="#0091d2"
     d="m 276.6,54.44 q -3.5,3.81 -8.34,4.09 c -8.08,0.46 -11.65,-4.71 -12.23,-12.24 q -0.67,-8.85 -0.13,-17.99 0.14,-2.3 2.44,-2.31 l 4.27,-0.01 q 2.83,-0.01 2.84,2.81 L 265.53,45 q 0.01,1.92 1.03,3.53 1.54,2.44 4.23,2.21 c 8.7,-0.73 6.16,-17.09 6.33,-22.67 Q 277.18,26 279.25,26 l 5.57,0.02 q 1.92,0 1.92,1.92 l 0.01,26.98 q 0.01,2.53 -2.5,2.88 c -2.75,0.4 -7.23,0.74 -7.33,-3.24 q -0.01,-0.46 -0.32,-0.12 z"
     id="path711" />
</svg>
